# xmcd CD database file
#
# Track frame offsets:
#	150
#	17896
#	36601
#	60363
#	76273
#	90515
#	103996
#
# Disc length: 1629 seconds
#
# Revision: 0
# Processed by: cddbd v1.5.2PL0 Copyright (c) Steve Scherf et al.
# Submitted via: CDex 1.79
#
DISCID=52065b07
DTITLE=Andrea Maria Rehm - moonglow
DYEAR=2003
DGENRE=Jazz
TTITLE0=You'd better go now
TTITLE1=What alittle moonlight can do
TTITLE2=Cry me a river
TTITLE3=Hello, my darling
TTITLE4=Nice work if you can get it
TTITLE5=They can't take that away from me
TTITLE6=All too soon
EXTD=YEAR: 2003
EXTT0=
EXTT1=
EXTT2=
EXTT3=
EXTT4=
EXTT5=
EXTT6=
PLAYORDER=
